<?xml version="1.0" encoding="UTF-8" standalone="no"?>
<!-- Created with Inkscape (http://www.inkscape.org/) -->

<svg
   xmlns:dc="http://purl.org/dc/elements/1.1/"
   xmlns:cc="http://creativecommons.org/ns#"
   xmlns:rdf="http://www.w3.org/1999/02/22-rdf-syntax-ns#"
   xmlns:svg="http://www.w3.org/2000/svg"
   xmlns="http://www.w3.org/2000/svg"
   version="1.1"
   width="192.92999"
   height="86.050003"
   id="svg2"
   xml:space="preserve"><metadata
     id="metadata8"><rdf:RDF><cc:Work
         rdf:about=""><dc:format>image/svg+xml</dc:format><dc:type
           rdf:resource="http://purl.org/dc/dcmitype/StillImage" /><dc:title></dc:title></cc:Work></rdf:RDF></metadata><defs
     id="defs6"><clipPath
       id="clipPath20"><path
         d="m 0,0 1190.551,0 0,841.89 L 0,841.89 0,0 z"
         id="path22" /></clipPath><clipPath
       id="clipPath44"><path
         d="m 0,0 1190.551,0 0,841.89 L 0,841.89 0,0 z"
         id="path46" /></clipPath><clipPath
       id="clipPath98"><path
         d="m 0,0 1190.551,0 0,841.89 L 0,841.89 0,0 z"
         id="path100" /></clipPath><clipPath
       id="clipPath116"><path
         d="m 0,0 1190.551,0 0,841.89 L 0,841.89 0,0 z"
         id="path118" /></clipPath><clipPath
       id="clipPath136"><path
         d="m 0,0 1190.551,0 0,841.89 L 0,841.89 0,0 z"
         id="path138" /></clipPath><clipPath
       id="clipPath164"><path
         d="m 595.275,0 595.276,0 0,688.819 -595.276,0 0,-688.819 z"
         id="path166" /></clipPath><clipPath
       id="clipPath190"><path
         d="m 0,0 1190.551,0 0,841.89 L 0,841.89 0,0 z"
         id="path192" /></clipPath></defs><g
     transform="matrix(1.25,0,0,-1.25,-746.465,88.515997)"
     id="g10"><g
       transform="translate(-30.244572,-744.48177)"
       id="g16"><g
         clip-path="url(#clipPath20)"
         id="g18"><g
           transform="translate(700.2235,770.7236)"
           id="g24"><path
             d="M 0,0 C 37.222,3.82 62.725,0.436 81.661,-4.791 81.794,-4.806 46.179,0.404 1.671,-5.149 -40.76,-10.287 -70.651,-23.562 -70.574,-23.277 -58.292,-14.717 -37.16,-5.163 0,0"
             id="path26"
             style="fill:#009e3d;fill-opacity:1;fill-rule:nonzero;stroke:none" /></g><g
           transform="translate(764.4652,778.3388)"
           id="g28"><path
             d="m 0,0 c -1.805,0.14 -2.896,2.794 -2.953,8.015 -0.058,5.373 1.246,8.225 2.969,8.225 1.332,0 2.215,-1.283 3.059,-2.711 L 3.061,2.863 C 2.359,1.436 1.537,0.042 0.027,0 L 0,0 z m 3.075,-1.83 0,-1.414 3.321,0 0,30.77 -3.321,0 0,-9.401 -0.014,0.014 c -0.844,0.924 -1.984,1.87 -3.571,1.842 -3.343,-0.055 -5.8,-4.077 -5.83,-11.785 -0.025,-7.25 2.047,-11.906 5.83,-11.938 1.622,-0.014 2.846,0.985 3.571,1.926 L 3.075,-1.83 z"
             id="path30"
             style="fill:#004289;fill-opacity:1;fill-rule:nonzero;stroke:none" /></g><g
           transform="translate(754.8876,775.0859)"
           id="g32"><path
             d="m 0,0 0,15.726 c -0.065,2.786 -0.381,4.303 -1.061,5.586 -0.642,1.263 -1.887,1.939 -3.178,1.939 -0.858,0 -1.872,-0.415 -2.611,-1 -0.792,-0.617 -1.098,-0.823 -1.851,-1.783 l -0.015,-0.016 0,2.284 -3.324,0 0.017,-22.736 3.307,0 0.031,15.993 c 0.604,1.058 0.996,1.453 1.598,2.143 0.62,0.523 1.216,1.047 1.898,1.047 0.855,0 1.139,-0.498 1.406,-1.078 0.3,-0.752 0.428,-1.849 0.428,-3.583 L -3.339,0 0,0 z"
             id="path34"
             style="fill:#004289;fill-opacity:1;fill-rule:nonzero;stroke:none" /></g></g></g><g
       transform="translate(695.62733,30.609028)"
       id="g36"><path
         d="m 0,0 0,3.499 -8.589,0 0,27.269 -3.33,0 L -11.904,0 0,0 z"
         id="path38"
         style="fill:#004289;fill-opacity:1;fill-rule:nonzero;stroke:none" /></g><g
       transform="translate(-30.244572,-744.48177)"
       id="g40"><g
         clip-path="url(#clipPath44)"
         id="g42"><g
           transform="translate(735.2362,779.9238)"
           id="g48"><path
             d="M 0,0 C -0.584,-1.022 -1.479,-1.783 -2.213,-1.8 -3.514,-1.832 -3.942,-0.425 -3.892,1.784 -3.829,4.629 -2.183,6.134 0,6.835 L 0,0 z m 3.78,-4.833 0,0.764 c -0.377,0.375 -0.44,1.22 -0.44,3.032 l 0,10.67 c 0,6.557 -1.568,8.736 -4.908,8.752 -3.508,0.016 -4.932,-3.336 -5.233,-6.719 l 3.366,-0.451 c 0.186,1.868 0.669,3.862 1.757,3.834 1.221,-0.031 1.615,-1.52 1.662,-4.563 l 0,-0.471 C -5.545,8.694 -7.288,5.502 -7.304,1.107 c -0.016,-4.085 1.612,-6.43 4.411,-6.43 1.354,0 2.561,0.817 3.113,1.566 l 0,-0.078 c 0.064,-0.39 0.121,-0.58 0.317,-0.998 l 3.243,0 z"
             id="path50"
             style="fill:#004289;fill-opacity:1;fill-rule:nonzero;stroke:none" /></g><g
           transform="translate(706.7074,779.9238)"
           id="g52"><path
             d="M 0,0 C -0.582,-1.022 -1.479,-1.783 -2.214,-1.8 -3.513,-1.832 -3.941,-0.425 -3.891,1.784 -3.828,4.629 -2.182,6.134 0,6.835 L 0,0 z m 3.782,-4.833 0,0.764 C 3.405,-3.694 3.34,-2.849 3.34,-1.037 l 0,10.67 c 0,6.557 -1.567,8.736 -4.907,8.752 -3.508,0.016 -4.933,-3.336 -5.232,-6.719 l 3.365,-0.451 c 0.187,1.868 0.669,3.862 1.757,3.834 1.221,-0.031 1.614,-1.52 1.662,-4.563 l 0,-0.471 c -5.53,-1.321 -7.273,-4.513 -7.289,-8.908 -0.014,-4.085 1.612,-6.43 4.413,-6.43 1.353,0 2.56,0.817 3.112,1.566 l 0,-0.078 c 0.065,-0.39 0.121,-0.58 0.316,-0.998 l 3.245,0 z"
             id="path54"
             style="fill:#004289;fill-opacity:1;fill-rule:nonzero;stroke:none" /></g><g
           transform="translate(665.7274,791.9101)"
           id="g56"><path
             d="M 0,0 C 0.531,0.996 0.863,1.561 1.403,2.021 2.027,2.535 2.399,2.622 2.929,2.64 3.703,2.664 4.445,2.102 4.996,0.789 c 0.559,-1.428 0.798,-3.394 0.798,-6.278 0,-3.381 -0.357,-5.298 -0.848,-6.438 -0.519,-0.95 -1.111,-1.618 -2.029,-1.618 -0.671,0 -1.187,0.368 -1.699,0.838 -0.453,0.574 -0.746,0.783 -1.218,1.801 L 0,0 z m -3.332,-26.408 3.332,0 0,10.83 0.024,-0.013 c 0.357,-0.413 0.539,-0.631 1.095,-1.009 0.782,-0.531 1.343,-0.671 2.154,-0.718 1.892,-0.113 3.542,1.254 4.415,3.018 0.947,1.91 1.515,4.951 1.515,8.883 0,4.063 -0.601,6.952 -1.501,8.762 C 6.605,5.547 5.044,6.412 3.507,6.412 2.622,6.412 1.855,6.17 1.23,5.729 0.604,5.268 0.445,5.086 -0.014,4.574 l -0.012,0 0.012,1.337 -3.318,0 0,-32.319 z"
             id="path58"
             style="fill:#004289;fill-opacity:1;fill-rule:nonzero;stroke:none" /></g><g
           transform="translate(655.4301,779.9238)"
           id="g60"><path
             d="m 0,0 c -0.583,-1.022 -1.479,-1.783 -2.214,-1.8 -1.3,-0.032 -1.727,1.375 -1.678,3.584 0.062,2.845 1.71,4.35 3.892,5.051 L 0,0 z m 3.781,-4.833 0,0.764 c -0.378,0.375 -0.442,1.22 -0.442,3.032 l 0,10.67 c 0,6.557 -1.567,8.736 -4.907,8.752 -3.507,0.016 -4.933,-3.336 -5.232,-6.719 l 3.365,-0.451 c 0.186,1.868 0.669,3.862 1.756,3.834 1.221,-0.031 1.615,-1.52 1.662,-4.563 l 0,-0.471 C -5.545,8.694 -7.289,5.502 -7.303,1.107 c -0.016,-4.085 1.61,-6.43 4.411,-6.43 1.352,0 2.561,0.817 3.113,1.566 l 0,-0.078 c 0.063,-0.39 0.12,-0.58 0.315,-0.998 l 3.245,0 z"
             id="path62"
             style="fill:#004289;fill-opacity:1;fill-rule:nonzero;stroke:none" /></g><g
           transform="translate(689.6605,797.7841)"
           id="g64"><path
             d="m 0,0 -1.8,0 0,-3.489 1.8,0 0,-13.313 c 0,-5.525 2.01,-6.264 4.163,-6.5 1.248,-0.136 2.65,0.936 3.413,1.579 l -0.856,3.491 c -0.626,-0.79 -1.047,-1.412 -1.873,-1.412 -1.182,0 -1.54,1.421 -1.54,5.29 l 0,10.865 3.357,0 0,3.489 -3.357,0 0,4.9 L 0,4.9 0,0 z"
             id="path66"
             style="fill:#004289;fill-opacity:1;fill-rule:nonzero;stroke:none" /></g><g
           transform="translate(686.3798,802.6747)"
           id="g68"><path
             d="m 0,0 c -2.567,0.299 -4.075,-3.072 -6.565,-12.875 -2.422,-9.462 -3.824,-16.065 -4.2,-21.401 -0.074,-1.029 0.263,-2.096 0.638,-2.024 0.826,0.157 1.588,3.101 4.109,8.244 5.512,11.311 5.49,9.814 5.524,11.78 0.01,0.56 -0.209,0.892 -0.434,0.85 -0.391,0.013 -0.634,-0.292 -5.117,-8.513 C -4.948,-16.734 -2.162,-5.915 0,0"
             id="path70"
             style="fill:#004289;fill-opacity:1;fill-rule:nonzero;stroke:none" /></g><g
           transform="translate(642.6415,784.4638)"
           id="g72"><path
             d="m 0,0 c -0.694,-2.643 -1.775,-6.343 -4.426,-6.343 -2.699,0 -5.293,2.865 -5.293,12.293 0,9.396 2.656,12.387 5.216,12.421 2.355,0.031 3.484,-2.392 4.171,-5.68 l 3.169,0.73 c -1.071,5.833 -3.837,8.351 -7.228,8.372 -2.403,0.014 -4.554,-1.378 -6.025,-3.841 -1.524,-2.615 -2.58,-6.856 -2.58,-11.887 0,-5.53 1.032,-9.628 2.675,-12.292 1.422,-2.304 3.67,-3.586 5.89,-3.586 3.461,0 6.553,3.707 7.598,8.899 L 0,0 z"
             id="path74"
             style="fill:#004289;fill-opacity:1;fill-rule:nonzero;stroke:none" /></g><g
           transform="translate(689.6757,808.7841)"
           id="g76"><path
             d="m 0,0 c 0,-2.025 -1.642,-3.668 -3.668,-3.668 -2.026,0 -3.668,1.643 -3.668,3.668 0,2.026 1.642,3.669 3.668,3.669 C -1.642,3.669 0,2.026 0,0"
             id="path78"
             style="fill:#e40521;fill-opacity:1;fill-rule:nonzero;stroke:none" /></g><g
           transform="translate(631.1495,734.2587)"
           id="g80" /><g
           transform="translate(640.4779,740.165)"
           id="g84" /></g></g><g
       id="g186"><g
         clip-path="url(#clipPath190)"
         id="g188" /></g></g></svg>