<?xml version="1.0" encoding="UTF-8" standalone="no"?>
<!-- Created with Inkscape (http://www.inkscape.org/) -->

<svg
   xmlns:dc="http://purl.org/dc/elements/1.1/"
   xmlns:cc="http://creativecommons.org/ns#"
   xmlns:rdf="http://www.w3.org/1999/02/22-rdf-syntax-ns#"
   xmlns:svg="http://www.w3.org/2000/svg"
   xmlns="http://www.w3.org/2000/svg"
   version="1.1"
   width="300"
   height="95.045006"
   id="svg19545">
  <defs
     id="defs19547" />
  <metadata
     id="metadata19550">
    <rdf:RDF>
      <cc:Work
         rdf:about="">
        <dc:format>image/svg+xml</dc:format>
        <dc:type
           rdf:resource="http://purl.org/dc/dcmitype/StillImage" />
        <dc:title></dc:title>
      </cc:Work>
    </rdf:RDF>
  </metadata>
  <g
     transform="translate(-225.00002,-484.83968)"
     id="layer1">
    <g
       transform="matrix(2.0622951,0,0,2.0622951,1233.9528,285.53995)"
       id="g19490">
      <path
         d="m -444.71158,96.639775 -8.24,0 c 0.885,0.44375 1.4175,1.50625 1.4175,2.65875 0,1.062495 -0.31,2.525005 -0.93125,4.163755 l -4.12,11.38624 -7.39875,-18.208745 -6.645,0 c 1.86,1.4175 2.74625,4.297505 1.3725,7.487495 l -4.8725,11.25375 -7.355,-18.741245 -7.75375,0 c 1.24125,0.8425 2.17125,2.79125 3.27875,5.493755 l 7.57625,19.00625 c 1.01875,2.57 2.17125,3.89875 4.6075,5.05124 l 7.88625,-17.76625 5.405,12.71501 c 1.1075,2.52625 2.215,3.89875 4.6525,5.05124 l 11.12,-29.551245 z"
         id="path7555"
         style="fill:#827662;fill-opacity:1;fill-rule:nonzero;stroke:none" />
      <path
         d="m -427.1427,120.69727 c -1.905,1.4175 -3.89875,2.0375 -6.69,2.0375 -1.50625,0 -2.835,-0.1325 -3.81,-0.355 l 0,-7.265 2.0375,0 c 2.48125,0 3.3225,0.1775 3.9875,0.93 l 0,-4.2525 -6.025,0 0,-5.98125 c 0,0 0.93,-0.13375 2.835,-0.13375 2.21625,0 3.76625,0.355 4.6525,1.33 l 0,-4.38625 -14.44375,0 c 1.1525,0.62 1.33,1.55 1.33,5.405 l 0,12.36125 c 0,3.85375 -0.1775,4.785 -1.33,5.405 l 15.8175,0 1.63875,-5.095 z"
         id="path7559"
         style="fill:#827662;fill-opacity:1;fill-rule:nonzero;stroke:none" />
      <path
         d="m -408.44395,118.6149 c 0,-7.08875 -10.76625,-6.60125 -10.76625,-10.94375 0,-1.285 1.1525,-2.3925 3.14625,-2.3925 2.12625,0 3.9425,0.75375 5.93625,2.65875 l 0,-5.05125 c -2.0375,-0.53125 -3.6775,-0.84125 -5.715,-0.84125 -4.43,0 -8.95,2.65875 -8.95,7.045 0,7.97375 10.76625,6.8225 10.76625,11.29625 0,1.595 -1.4175,2.7475 -3.855,2.7475 -2.74625,0 -5.405,-1.1075 -8.15125,-3.5 l 1.46125,5.5375 c 2.21625,0.7975 4.07625,1.19625 6.115,1.19625 5.67125,0 10.0125,-3.10125 10.0125,-7.7525"
         id="path7563"
         style="fill:#827662;fill-opacity:1;fill-rule:nonzero;stroke:none" />
      <path
         d="m -387.86883,102.6209 -18.9175,0 -1.285,4.38625 c 1.4175,-0.975 2.7025,-1.33 5.05,-1.33 l 2.26,0 0,14.71 c 0,3.85375 -0.1775,4.785 -1.37375,5.405 l 8.285,0 c -1.15125,-0.62 -1.32875,-1.55125 -1.32875,-5.405 l 0,-14.71 1.99375,0 c 2.0825,0 3.5,0.31 4.20875,1.33 l 1.1075,-4.38625 z"
         id="path7567"
         style="fill:#827662;fill-opacity:1;fill-rule:nonzero;stroke:none" />
      <path
         d="m -377.0092,125.79203 c -1.1525,-0.62 -1.32875,-1.55 -1.32875,-5.405 l 0,-12.36125 c 0,-3.85375 0.17625,-4.785 1.32875,-5.405 l -8.285,0 c 1.1525,0.62 1.32875,1.55125 1.32875,5.405 l 0,12.36125 c 0,3.855 -0.17625,4.785 -1.32875,5.405 l 8.285,0 z"
         id="path7571"
         style="fill:#827662;fill-opacity:1;fill-rule:nonzero;stroke:none" />
      <path
         d="m -349.50008,102.6209 -7.575,0 c 1.50625,0.7975 1.6825,2.48125 1.6825,5.05125 l 0,9.39125 -9.7025,-11.51875 c -0.975,-1.19625 -1.63875,-2.08125 -2.26,-2.92375 l -6.68875,0 c 1.3725,0.7975 2.0375,2.30375 2.0375,5.44875 l 0,12.67125 c 0,2.57 -0.1775,4.25375 -1.68375,5.05125 l 7.57625,0 c -1.50625,-0.7975 -1.68375,-2.48125 -1.68375,-5.05125 l 0,-9.56875 10.0125,11.8725 c 1.4175,1.68375 3.235,2.3925 6.60125,2.925 l 0,-18.2975 c 0,-2.57 0.22125,-4.25375 1.68375,-5.05125"
         id="path7575"
         style="fill:#827662;fill-opacity:1;fill-rule:nonzero;stroke:none" />
      <path
         d="m -476.5287,138.9264 0,2.04125 c 0,0.5075 0.0788,1.33125 -0.49625,1.545 l 0,0.0337 2.15375,0 0,-0.0337 c -0.575,-0.21375 -0.5075,-1.0375 -0.5075,-1.545 l 0,-4.2625 c 0,-0.5075 -0.0675,-1.33125 0.5075,-1.545 l 0,-0.0337 -2.15375,0 0,0.0337 c 0.575,0.21375 0.49625,1.0375 0.49625,1.55625 l 0,1.39875 -4.07125,0 0,-1.39875 c 0,-0.51875 -0.0675,-1.3425 0.49625,-1.55625 l 0,-0.0337 -2.1425,0 0,0.0337 c 0.575,0.21375 0.49625,1.0375 0.49625,1.545 l 0,4.2625 c 0,0.5075 0.0675,1.33125 -0.49625,1.545 l 0,0.0337 2.1425,0 0,-0.0337 c -0.56375,-0.21375 -0.49625,-1.0375 -0.49625,-1.545 l 0,-2.04125 4.07125,0 z"
         id="path7579"
         style="fill:#827662;fill-opacity:1;fill-rule:nonzero;stroke:none" />
      <path
         d="m -467.57158,135.74678 c 1.7825,0 2.83125,1.59 2.83125,3.23625 0,1.68 -1.095,2.9325 -2.80875,2.9325 -1.77,0 -2.8875,-1.62375 -2.8875,-3.2025 0,-1.70375 1.1175,-2.96625 2.865,-2.96625 m 0.0787,-0.8125 c -2.3675,-0.0563 -4.22875,1.7375 -4.22875,3.87875 0,2.3125 1.88375,3.91375 4.11625,3.91375 2.24375,0 4.15,-1.66875 4.15,-3.96875 0,-2.03 -1.66875,-3.835 -4.0375,-3.82375"
         id="path7583"
         style="fill:#827662;fill-opacity:1;fill-rule:nonzero;stroke:none" />
      <path
         d="m -457.90208,135.93777 1.015,0 c 0.3725,0 0.8225,0.0563 0.97,0.45125 l 0.0337,0 0.36125,-1.3425 -0.0337,0 c -0.1475,0.0688 -0.3275,0.08 -0.52,0.08 l -4.20625,0 -0.28125,0 c -0.1475,-0.0225 -0.29375,-0.0225 -0.42875,-0.08 l -0.0337,0 -0.395,1.3425 0.0337,0 c 0.35,-0.3275 0.8575,-0.45125 1.3425,-0.45125 l 0.9925,0 0,5.03 c 0,0.5075 0.0675,1.33125 -0.49625,1.545 l 0,0.0337 2.2325,0 0,-0.0337 c -0.5975,-0.35 -0.58625,-0.78875 -0.58625,-1.4325 l 0,-5.1425 z"
         id="path7587"
         style="fill:#827662;fill-opacity:1;fill-rule:nonzero;stroke:none" />
      <path
         d="m -450.84945,138.9264 0.835,0 c 0.34875,0 0.8225,-0.0112 1.00375,0.31625 l 0.0337,0 0,-1.195 -0.0337,0 c -0.13625,0.0675 -0.31625,0.0675 -0.49625,0.0675 l -1.3425,0 0,-2.09875 c 0.36125,-0.0675 0.75625,-0.0788 1.15,-0.0788 0.51875,0 0.98125,0.0463 1.33125,0.45125 l 0.0337,0 0,-1.31875 -0.0337,0 c -0.14625,0.0787 -0.33875,0.0562 -0.53,0.0562 l -3.60875,0 0,0.0337 c 0.575,0.21375 0.5075,1.0375 0.5075,1.55625 l 0,4.25125 c 0,0.5075 0.0675,1.3425 -0.5075,1.545 l 0,0.0337 4.7025,0 0.5075,-1.4775 -0.0337,0 c -0.56375,0.49625 -1.3425,0.73375 -2.08625,0.66625 l -1.4325,-0.135 0,-2.67375 z"
         id="path7591"
         style="fill:#827662;fill-opacity:1;fill-rule:nonzero;stroke:none" />
      <path
         d="m -442.59095,141.6334 0,-4.9175 c 0,-0.5075 -0.0787,-1.34125 0.49625,-1.55625 l 0,-0.0337 -2.15375,0 0,0.0337 c 0.575,0.215 0.5075,1.0375 0.5075,1.55625 l 0,4.2525 c 0,0.50625 0.0675,1.34125 -0.5075,1.545 l 0,0.0337 4.635,0 0.58625,-1.5 -0.0337,0 c -0.56375,0.47375 -1.23,0.7325 -1.99625,0.6875 l -1.53375,-0.10125 z"
         id="path7595"
         style="fill:#827662;fill-opacity:1;fill-rule:nonzero;stroke:none" />
      <path
         d="m -431.65995,135.1939 c -0.54125,-0.16875 -1.11625,-0.2475 -1.68,-0.2475 -1.37625,0 -2.83125,0.54 -2.83125,1.96125 0,2.39125 3.88,2.075 3.88,3.835 0,0.78875 -0.97,1.1725 -1.6125,1.1725 -0.88,0 -1.805,-0.36125 -2.47,-0.93625 l 0.32625,1.41 c 0.64375,0.23625 1.33125,0.3375 2.01875,0.3375 1.76,0 3.0225,-1.12625 3.0225,-2.33375 0,-2.08625 -3.87875,-2.06375 -3.87875,-3.60875 0,-0.77875 0.81125,-1.02625 1.455,-1.02625 0.63125,0 1.33,0.25875 1.77,0.71 l 0,-1.27375 z"
         id="path7599"
         style="fill:#827662;fill-opacity:1;fill-rule:nonzero;stroke:none" />
      <path
         d="m -418.9527,140.97915 c -0.395,0.51875 -0.97,0.97 -1.6575,0.97 -0.86875,0 -1.57875,-0.5525 -1.57875,-1.4775 0,-0.7 0.4625,-1.27375 1.015,-1.66875 l 2.22125,2.17625 z m -2.03,-3.47375 c -0.30375,-0.27 -0.78875,-0.72125 -0.78875,-1.1725 0,-0.42875 0.3375,-0.6425 0.74375,-0.6425 0.4175,0 0.7775,0.25875 0.7775,0.6875 0,0.4625 -0.37125,0.86875 -0.7325,1.1275 m 6.1125,5.04125 0,-0.0337 c -2.13125,-0.98125 -3.78875,-2.72875 -5.46875,-4.34125 0.5175,-0.4625 0.98,-0.925 0.98,-1.67 0,-0.93625 -0.72125,-1.55625 -1.62375,-1.55625 -0.88,0 -1.75875,0.6325 -1.75875,1.5675 0,0.63125 0.485,1.1625 0.90125,1.59 -0.8225,0.655 -1.55625,1.32 -1.55625,2.43625 0,1.39875 1.275,2.15375 2.54875,2.15375 1.08375,0 1.77125,-0.39375 2.34625,-1.32 0.35,0.33875 0.93625,0.77875 1.3425,0.99375 0.30375,0.1575 0.665,0.18 1.06,0.18 l 1.22875,0 z"
         id="path7603"
         style="fill:#827662;fill-opacity:1;fill-rule:nonzero;stroke:none" />
      <path
         d="m -408.39933,135.12603 0,0.0338 c 0.575,0.215 0.49625,1.0375 0.49625,1.55625 l 0,4.25125 c 0,0.5075 0.0788,1.3425 -0.49625,1.54625 l 0,0.0337 2.15375,0 0,-0.0337 c -0.575,-0.20375 -0.5075,-1.02625 -0.5075,-1.54625 l 0,-5.05125 c 0.26,-0.0463 0.5075,-0.08 0.7675,-0.0913 0.755,-0.0337 1.455,0.44 1.455,1.2525 0,1.06 -1.04875,1.4775 -1.95125,1.6125 l 1.0375,1.59 1.375,1.7025 c 0.33875,0.4175 0.71125,0.565 1.30875,0.565 l 1.0375,0 c -0.6425,-0.40625 -1.35375,-0.9925 -1.82625,-1.58 l -1.625,-2.04125 c 0.925,-0.21375 1.79375,-0.9925 1.79375,-1.985 0,-1.025 -0.82375,-1.815 -2.33375,-1.815 l -2.685,0 z"
         id="path7607"
         style="fill:#827662;fill-opacity:1;fill-rule:nonzero;stroke:none" />
      <path
         d="m -397.32333,138.9264 0.835,0 c 0.34875,0 0.8225,-0.0112 1.00375,0.31625 l 0.0337,0 0,-1.195 -0.0337,0 c -0.13625,0.0675 -0.31625,0.0675 -0.49625,0.0675 l -1.3425,0 0,-2.09875 c 0.36,-0.0675 0.75625,-0.0788 1.15,-0.0788 0.51875,0 0.98125,0.0463 1.33125,0.45125 l 0.0337,0 0,-1.31875 -0.0337,0 c -0.14625,0.0787 -0.33875,0.0562 -0.53,0.0562 l -3.60875,0 0,0.0337 c 0.575,0.21375 0.5075,1.0375 0.5075,1.55625 l 0,4.25125 c 0,0.5075 0.0675,1.3425 -0.5075,1.545 l 0,0.0337 4.7025,0 0.5075,-1.4775 -0.0337,0 c -0.56375,0.49625 -1.3425,0.73375 -2.08625,0.66625 l -1.4325,-0.135 0,-2.67375 z"
         id="path7611"
         style="fill:#827662;fill-opacity:1;fill-rule:nonzero;stroke:none" />
      <path
         d="m -386.15345,135.1939 c -0.54125,-0.16875 -1.11625,-0.2475 -1.68,-0.2475 -1.37625,0 -2.83125,0.54 -2.83125,1.96125 0,2.39125 3.88,2.075 3.88,3.835 0,0.78875 -0.97,1.1725 -1.61375,1.1725 -0.87875,0 -1.80375,-0.36125 -2.46875,-0.93625 l 0.32625,1.41 c 0.64375,0.23625 1.33125,0.3375 2.01875,0.3375 1.76,0 3.0225,-1.12625 3.0225,-2.33375 0,-2.08625 -3.87875,-2.06375 -3.87875,-3.60875 0,-0.77875 0.81125,-1.02625 1.45375,-1.02625 0.6325,0 1.33125,0.25875 1.77125,0.71 l 0,-1.27375 z"
         id="path7615"
         style="fill:#827662;fill-opacity:1;fill-rule:nonzero;stroke:none" />
      <path
         d="m -378.3237,135.74678 c 1.7825,0 2.83125,1.59 2.83125,3.23625 0,1.68 -1.095,2.9325 -2.80875,2.9325 -1.77125,0 -2.8875,-1.62375 -2.8875,-3.2025 0,-1.70375 1.11625,-2.96625 2.865,-2.96625 m 0.0787,-0.8125 c -2.36875,-0.0563 -4.22875,1.7375 -4.22875,3.87875 0,2.3125 1.88375,3.91375 4.11625,3.91375 2.24375,0 4.15,-1.66875 4.15,-3.96875 0,-2.03 -1.66875,-3.835 -4.0375,-3.82375"
         id="path7619"
         style="fill:#827662;fill-opacity:1;fill-rule:nonzero;stroke:none" />
      <path
         d="m -371.08895,135.12603 0,0.0338 c 0.575,0.215 0.49625,1.0375 0.49625,1.55625 l 0,4.25125 c 0,0.5075 0.0787,1.3425 -0.49625,1.54625 l 0,0.0337 2.15375,0 0,-0.0337 c -0.575,-0.20375 -0.5075,-1.02625 -0.5075,-1.54625 l 0,-5.05125 c 0.26,-0.0463 0.5075,-0.08 0.7675,-0.0913 0.755,-0.0337 1.455,0.44 1.455,1.2525 0,1.06 -1.04875,1.4775 -1.95125,1.6125 l 1.0375,1.59 1.375,1.7025 c 0.33875,0.4175 0.71125,0.565 1.30875,0.565 l 1.0375,0 c -0.6425,-0.40625 -1.3525,-0.9925 -1.82625,-1.58 l -1.62375,-2.04125 c 0.92375,-0.21375 1.7925,-0.9925 1.7925,-1.985 0,-1.025 -0.8225,-1.815 -2.33375,-1.815 l -2.685,0 z"
         id="path7623"
         style="fill:#827662;fill-opacity:1;fill-rule:nonzero;stroke:none" />
      <path
         d="m -359.36158,135.93777 1.015,0 c 0.3725,0 0.82375,0.0563 0.97,0.45125 l 0.0337,0 0.36125,-1.3425 -0.0337,0 c -0.1475,0.0688 -0.3275,0.08 -0.51875,0.08 l -4.20625,0 -0.2825,0 c -0.14625,-0.0225 -0.2925,-0.0225 -0.42875,-0.08 l -0.0337,0 -0.395,1.3425 0.035,0 c 0.34875,-0.3275 0.85625,-0.45125 1.34125,-0.45125 l 0.9925,0 0,5.03 c 0,0.5075 0.0675,1.33125 -0.49625,1.545 l 0,0.0337 2.23375,0 0,-0.0337 c -0.59875,-0.35 -0.5875,-0.78875 -0.5875,-1.4325 l 0,-5.1425 z"
         id="path7627"
         style="fill:#827662;fill-opacity:1;fill-rule:nonzero;stroke:none" />
      <path
         d="m -350.06783,135.1939 c -0.54125,-0.16875 -1.11625,-0.2475 -1.68,-0.2475 -1.37625,0 -2.83125,0.54 -2.83125,1.96125 0,2.39125 3.87875,2.075 3.87875,3.835 0,0.78875 -0.96875,1.1725 -1.61125,1.1725 -0.88,0 -1.805,-0.36125 -2.47,-0.93625 l 0.32625,1.41 c 0.64375,0.23625 1.33125,0.3375 2.01875,0.3375 1.76,0 3.0225,-1.12625 3.0225,-2.33375 0,-2.08625 -3.87875,-2.06375 -3.87875,-3.60875 0,-0.77875 0.81125,-1.02625 1.455,-1.02625 0.63,0 1.33,0.25875 1.77,0.71 l 0,-1.27375 z"
         id="path7631"
         style="fill:#827662;fill-opacity:1;fill-rule:nonzero;stroke:none" />
      <path
         d="m -346.77008,105.58477 0,-0.8775 0.585,0 c 0.29875,0 0.6175,0.065 0.6175,0.41625 0,0.435 -0.325,0.46125 -0.68875,0.46125 l -0.51375,0 z m 0,0.36375 0.49375,0 0.7475,1.2275 0.48,0 -0.805,-1.2475 c 0.41625,-0.0513 0.735,-0.2725 0.735,-0.77875 0,-0.55875 -0.3325,-0.80625 -1.00125,-0.80625 l -1.07875,0 0,2.8325 0.42875,0 0,-1.2275 z m 0.52,2.2675 c 1.33875,0 2.48125,-1.04 2.48125,-2.4625 0,-1.41 -1.1425,-2.45 -2.48125,-2.45 -1.35125,0 -2.495,1.04 -2.495,2.45 0,1.4225 1.14375,2.4625 2.495,2.4625 m -2.00125,-2.4625 c 0,-1.1625 0.8775,-2.04 2.00125,-2.04 1.11125,0 1.9875,0.8775 1.9875,2.04 0,1.1825 -0.87625,2.05375 -1.9875,2.05375 -1.12375,0 -2.00125,-0.87125 -2.00125,-2.05375"
         id="path7635"
         style="fill:#827662;fill-opacity:1;fill-rule:nonzero;stroke:none" />
    </g>
  </g>
</svg>
